<svg width="179" height="58" viewBox="0 0 179 58" fill="none" xmlns="http://www.w3.org/2000/svg">
<path d="M16.1098 34.795C15.8816 34.5658 15.6102 34.3852 15.2939 34.2522C14.977 34.1192 14.6429 34.0527 14.2904 34.0527C13.9375 34.0527 13.6069 34.1192 13.2977 34.2522C12.9891 34.3852 12.7206 34.5658 12.493 34.795C12.2648 35.0236 12.085 35.2968 11.9526 35.6144C11.8201 35.9316 11.7539 36.2677 11.7539 36.6222C11.7539 36.9766 11.8201 37.3086 11.9526 37.6186C12.085 37.9286 12.2648 38.1982 12.493 38.4274C12.7206 38.656 12.9891 38.8371 13.2977 38.9701C13.6064 39.1031 13.9375 39.1696 14.2904 39.1696C14.6429 39.1696 14.977 39.1031 15.2939 38.9701C15.6097 38.8371 15.8811 38.656 16.1098 38.4274C16.3375 38.1982 16.5178 37.9291 16.6502 37.6186C16.7827 37.3086 16.8489 36.9766 16.8489 36.6222C16.8489 36.2677 16.7827 35.9316 16.6502 35.6144C16.5178 35.2968 16.3375 35.0241 16.1098 34.795Z" fill="white"/>
<path d="M10.1997 34.795C9.97147 34.5658 9.69948 34.3852 9.38368 34.2522C9.06738 34.1192 8.73325 34.0527 8.38027 34.0527C8.0278 34.0527 7.69673 34.1192 7.38807 34.2522C7.0794 34.3852 6.81047 34.5658 6.5833 34.795C6.35511 35.0236 6.17531 35.2968 6.04288 35.6144C5.91045 35.9316 5.84424 36.2677 5.84424 36.6222C5.84424 36.9766 5.90994 37.3086 6.04288 37.6186C6.17531 37.9286 6.35511 38.1982 6.5833 38.4274C6.81098 38.656 7.0794 38.8371 7.38807 38.9701C7.69673 39.1031 8.0278 39.1696 8.38027 39.1696C8.73325 39.1696 9.06738 39.1031 9.38368 38.9701C9.69948 38.8371 9.97147 38.656 10.1997 38.4274C10.4273 38.1982 10.6076 37.9291 10.7401 37.6186C10.8725 37.3086 10.9387 36.9766 10.9387 36.6222C10.9387 36.2677 10.8725 35.9316 10.7401 35.6144C10.6081 35.2968 10.4278 35.0241 10.1997 34.795Z" fill="white"/>
<path d="M42.1547 5.13969C41.9265 4.91104 41.6551 4.72996 41.3393 4.59696C41.0225 4.46396 40.6883 4.39746 40.3359 4.39746C39.9829 4.39746 39.6518 4.46396 39.3431 4.59696C39.0345 4.72996 38.7661 4.91053 38.5384 5.13969C38.3102 5.36886 38.1304 5.6415 37.998 5.95917C37.8655 6.27683 37.7993 6.61239 37.7993 6.96688C37.7993 7.32137 37.8655 7.65336 37.998 7.96335C38.1304 8.27334 38.3102 8.54291 38.5384 8.77157C38.7661 9.00073 39.0345 9.1813 39.3431 9.3143C39.6518 9.4473 39.9829 9.5138 40.3359 9.5138C40.6883 9.5138 41.0225 9.4473 41.3393 9.3143C41.6551 9.1813 41.9265 9.00073 42.1547 8.77157C42.3824 8.54291 42.5627 8.27334 42.6951 7.96335C42.8276 7.65336 42.8938 7.32086 42.8938 6.96688C42.8938 6.61239 42.8276 6.27683 42.6951 5.95917C42.5627 5.6415 42.3824 5.36835 42.1547 5.13969Z" fill="white"/>
<path d="M42.7163 12.8359H37.9972V26.2575H32.3511H31.8H28.9991V14.6304C28.9991 14.3061 28.9405 13.9992 28.8229 13.7112C28.7047 13.4232 28.5432 13.1684 28.3375 12.9469C28.1312 12.7254 27.8852 12.5449 27.5984 12.4042C27.3116 12.264 27.0065 12.194 26.6831 12.194L22.6476 12.1055C20.163 12.1055 18.2478 12.7776 16.9026 14.1209C15.5575 15.4647 14.8851 17.384 14.8851 19.8792V26.2575L9.0414 26.2795C8.12967 26.2795 7.39468 26.1762 6.83593 25.9695C6.27718 25.7628 5.84372 25.4825 5.53506 25.128C5.2264 24.7735 5.01706 24.3607 4.90653 23.8876C4.79651 23.4154 4.73386 22.9131 4.71909 22.3816C4.71909 21.5402 4.82198 20.7207 5.02775 19.9232C5.23353 19.1257 5.47649 18.4612 5.75561 17.9298L1.56573 15.7373C1.35944 16.1358 1.16131 16.5865 0.970304 17.0883C0.77879 17.5906 0.609687 18.1257 0.462995 18.694C0.315795 19.2628 0.201701 19.8531 0.121225 20.4659C0.0402388 21.0788 0 21.6951 0 22.3151C0 23.4078 0.157898 24.4743 0.474202 25.5153C0.790505 26.5562 1.30494 27.4831 2.01803 28.2949C2.73111 29.1072 3.66118 29.764 4.80772 30.2659C5.95425 30.7682 7.36565 31.0188 9.04191 31.0188H17.2449C17.6127 31.0188 17.9432 30.9493 18.2376 30.8086C18.5315 30.6684 18.7811 30.4843 18.9874 30.2551C19.1932 30.0265 19.3511 29.7533 19.4616 29.4356C19.5721 29.1185 19.6271 28.7824 19.6271 28.4279L19.6052 19.8792C19.6052 19.3032 19.6526 18.8239 19.7484 18.4393C19.8441 18.0556 20.002 17.7456 20.2226 17.5093C20.4431 17.2735 20.7441 17.1036 21.1266 16.9998C21.5087 16.8965 21.9864 16.8448 22.5599 16.8448L24.28 16.8893V28.6494C24.28 28.9742 24.3427 29.2806 24.468 29.5686C24.5922 29.8566 24.7618 30.1078 24.9748 30.3216C25.1882 30.5359 25.4377 30.7058 25.7245 30.8311C26.0113 30.9569 26.3164 31.0193 26.6398 31.0193H31.8H32.3511H40.3565C40.6799 31.0193 40.9886 30.9569 41.2825 30.8311C41.5764 30.7058 41.83 30.5359 42.0434 30.3216C42.2563 30.1078 42.4254 29.8566 42.5507 29.5686C42.6755 29.2806 42.7382 28.9742 42.7382 28.6494C42.7382 28.5609 42.7305 28.4873 42.7163 28.4279V12.8359Z" fill="white"/>
<path d="M52.6815 4.26465H47.9624V30.9743H52.6815V4.26465Z" fill="white"/>
<path d="M83.0605 35.2378C82.8328 35.0086 82.5609 34.8281 82.2445 34.6956C81.9282 34.5626 81.5936 34.4961 81.2411 34.4961C80.8882 34.4961 80.5571 34.5626 80.2484 34.6956C79.9398 34.8286 79.6713 35.0092 79.4437 35.2378C79.2155 35.4665 79.0357 35.7396 78.9032 36.0573C78.7708 36.3744 78.7046 36.7105 78.7046 37.065C78.7046 37.4195 78.7708 37.7515 78.9032 38.0615C79.0357 38.3715 79.2155 38.641 79.4437 38.8697C79.6713 39.0983 79.9398 39.2794 80.2484 39.4124C80.5571 39.5454 80.8882 39.6119 81.2411 39.6119C81.5936 39.6119 81.9282 39.5454 82.2445 39.4124C82.5603 39.2794 82.8323 39.0989 83.0605 38.8697C83.2882 38.6405 83.4685 38.3715 83.6009 38.0615C83.7334 37.7515 83.7996 37.419 83.7996 37.065C83.7996 36.7105 83.7334 36.3744 83.6009 36.0573C83.469 35.7396 83.2887 35.4665 83.0605 35.2378Z" fill="white"/>
<path d="M88.9731 35.2378C88.7449 35.0086 88.4729 34.8281 88.1571 34.6956C87.8408 34.5626 87.5067 34.4961 87.1537 34.4961C86.8007 34.4961 86.4702 34.5626 86.1615 34.6956C85.8528 34.8286 85.5839 35.0092 85.3562 35.2378C85.1285 35.4665 84.9487 35.7396 84.8158 36.0573C84.6834 36.3744 84.6177 36.7105 84.6177 37.065C84.6177 37.4195 84.6834 37.7515 84.8158 38.0615C84.9482 38.3715 85.128 38.641 85.3562 38.8697C85.5839 39.0983 85.8528 39.2794 86.1615 39.4124C86.4702 39.5454 86.8007 39.6119 87.1537 39.6119C87.5067 39.6119 87.8408 39.5454 88.1571 39.4124C88.4729 39.2794 88.7449 39.0989 88.9731 38.8697C89.2008 38.6405 89.3811 38.3715 89.5135 38.0615C89.6459 37.7515 89.7116 37.419 89.7116 37.065C89.7116 36.7105 89.6459 36.3744 89.5135 36.0573C89.3816 35.7396 89.2013 35.4665 88.9731 35.2378Z" fill="white"/>
<path d="M111.754 13.6335C111.629 13.3532 111.46 13.1056 111.247 12.8918C111.034 12.678 110.784 12.5081 110.497 12.3823C110.21 12.257 109.905 12.194 109.582 12.194L102.9 12.1056C102.076 12.0764 101.29 12.1756 100.54 12.4043C99.7903 12.6335 99.0884 12.9547 98.4339 13.3675C97.7799 13.7808 97.1845 14.2755 96.6476 14.8515C96.1108 15.4274 95.6518 16.0474 95.2693 16.7119C94.8868 17.3764 94.5924 18.0628 94.3871 18.7713C94.1814 19.4803 94.0785 20.1739 94.0785 20.8533V26.2571H90.837H90.3516H86.8009V12.836H82.0819V26.2576H77.9582H77.6271H75.2016C75.084 24.0135 74.7936 22.0687 74.3306 20.422C73.8676 18.7759 73.1291 17.362 72.1145 16.1809C71.4971 15.4719 70.7841 14.8596 69.9752 14.3425C69.1664 13.8258 68.2475 13.4048 67.2186 13.08C66.1898 12.7557 65.032 12.523 63.7454 12.3823C62.4588 12.2421 61.0362 12.1797 59.4781 12.194L59.5224 16.9334C61.9041 16.9042 63.8193 17.0771 65.2673 17.4536C66.7154 17.8301 67.8064 18.447 68.5419 19.3028C69.1735 20.0118 69.637 20.9305 69.9314 22.06C70.2253 23.1894 70.4087 24.5813 70.4825 26.2351H58.0005V30.9969L77.6271 31.0184L90.3516 31.0189H90.837H109.582C109.949 31.0189 110.277 30.9493 110.563 30.8087C110.85 30.6685 111.096 30.4844 111.303 30.2552C111.508 30.0265 111.666 29.7534 111.777 29.4357C111.887 29.1186 111.942 28.7825 111.942 28.428V14.5415C111.941 14.2166 111.879 13.9138 111.754 13.6335ZM107.2 26.2571H98.82V20.8313C98.82 20.3294 98.9305 19.8384 99.151 19.3586C99.3716 18.8787 99.6691 18.4542 100.044 18.0854C100.419 17.7165 100.846 17.4173 101.323 17.1886C101.801 16.96 102.29 16.8454 102.79 16.8454C102.819 16.8454 102.856 16.8454 102.9 16.8454C102.958 16.8454 103.124 16.849 103.396 16.8567C103.668 16.8643 104.094 16.8715 104.675 16.8787C105.256 16.8863 106.098 16.8971 107.2 16.9119V26.2571Z" fill="white"/>
<path d="M28.787 52.5829C28.4193 52.5829 28.1106 52.5281 27.862 52.4187C27.6135 52.3092 27.4118 52.1654 27.259 51.9869C27.1062 51.8089 26.9961 51.6074 26.9294 51.3813C26.8627 51.1562 26.8296 50.9286 26.8296 50.6999C26.8296 50.4446 26.8581 50.1981 26.9152 49.9597C26.9717 49.7208 27.0425 49.5137 27.1276 49.3367C27.1994 49.3761 27.2666 49.4124 27.3303 49.4472C27.3939 49.4819 27.4566 49.5142 27.5182 49.5449C27.5799 49.5766 27.642 49.6078 27.7036 49.641C27.7653 49.6733 27.832 49.708 27.9038 49.7438C27.8452 49.8712 27.7973 50.0201 27.7597 50.1899C27.722 50.3597 27.7036 50.5352 27.7036 50.7142C27.7036 50.8488 27.7174 50.9746 27.7454 51.0917C27.7729 51.2094 27.8249 51.3132 27.9018 51.4027C27.9782 51.4928 28.0841 51.5644 28.2191 51.6186C28.3541 51.6728 28.5272 51.7015 28.7391 51.7046L31.4539 51.6994V46.6885H32.328V51.6994H33.2214V52.5823H28.787V52.5829ZM28.6602 48.6067C28.6342 48.5515 28.6164 48.4921 28.6067 48.4297C28.597 48.3678 28.5924 48.3044 28.5924 48.2389C28.5924 48.111 28.6159 47.9862 28.6632 47.864C28.7106 47.7412 28.7799 47.6328 28.8705 47.5376C28.9617 47.4425 29.0748 47.3663 29.2103 47.3074C29.3458 47.2486 29.5021 47.2189 29.6814 47.2189H30.6527V47.8665L29.6814 47.8614C29.5251 47.8614 29.4115 47.9003 29.3396 47.9786C29.2678 48.0568 29.2322 48.1438 29.2322 48.2389C29.2322 48.3305 29.2643 48.4128 29.3274 48.486C29.3911 48.5602 29.494 48.6001 29.6376 48.6062H30.7358V49.2533H28.3291V48.6062H28.6602V48.6067Z" fill="white"/>
<path d="M33.0918 52.5811V51.6982H35.1816V52.5811H33.0918Z" fill="white"/>
<path d="M35.082 52.5811V51.6982H37.1719V52.5811H35.082Z" fill="white"/>
<path d="M37.0654 52.5811V51.6982H39.1553V52.5811H37.0654Z" fill="white"/>
<path d="M39.0552 52.5811V51.6982H41.145V52.5811H39.0552Z" fill="white"/>
<path d="M41.061 51.6991H42.4724V48.6396H43.3465V52.0965C43.3495 52.1093 43.3516 52.1247 43.3516 52.141C43.3516 52.2648 43.3093 52.3697 43.2242 52.4546C43.1397 52.5395 43.0358 52.582 42.912 52.582H41.0615L41.061 51.6991ZM42.4281 47.2032C42.4281 47.0656 42.4735 46.9505 42.5646 46.8574C42.6558 46.7638 42.7699 46.7178 42.9064 46.7178C43.0434 46.7178 43.158 46.7643 43.2507 46.8574C43.3439 46.9505 43.3898 47.0656 43.3898 47.2032C43.3898 47.3403 43.3434 47.4549 43.2507 47.5465C43.158 47.638 43.0434 47.6841 42.9064 47.6841C42.7699 47.6841 42.6558 47.638 42.5646 47.5465C42.4735 47.4549 42.4281 47.3403 42.4281 47.2032Z" fill="white"/>
<path d="M45.5325 52.5721H44.6636V46.6885H45.5325V52.5721Z" fill="white"/>
<path d="M46.8359 52.5756V51.6927H49.6822C49.6628 51.2773 49.6154 50.9264 49.5406 50.6384C49.4662 50.3504 49.3552 50.1203 49.209 49.9468C49.0327 49.7509 48.7821 49.6046 48.4567 49.5085C48.1312 49.4123 47.7064 49.3673 47.1823 49.3734C47.1823 49.2067 47.1808 49.0578 47.1777 48.9274C47.1741 48.7964 47.1726 48.6527 47.1726 48.4956C47.5042 48.492 47.8073 48.5074 48.0803 48.5422C48.3538 48.5764 48.6008 48.6291 48.8224 48.6992C49.0439 48.7698 49.2406 48.8604 49.4132 48.9714C49.5859 49.0824 49.7387 49.2133 49.8721 49.3637C50.0932 49.622 50.2562 49.9422 50.3601 50.3249C50.464 50.707 50.5292 51.1653 50.5557 51.6978H51.1756V52.5807L46.8359 52.5756Z" fill="white"/>
<path d="M52.1455 51.6991V48.6396H53.0195V51.6991H53.9374V52.582H51.1304V51.6991H52.1455ZM51.3738 54.0578C51.3738 53.9202 51.4207 53.8056 51.5129 53.712C51.6061 53.6189 51.7187 53.5729 51.8521 53.5729C51.9209 53.5729 51.984 53.5846 52.0426 53.6092C52.1012 53.6337 52.1526 53.668 52.1964 53.712C52.2407 53.7565 52.2744 53.8082 52.2988 53.8665C52.3233 53.9253 52.3355 53.9892 52.3355 54.0578C52.3355 54.1268 52.3233 54.1898 52.2988 54.2465C52.2744 54.3038 52.2407 54.3545 52.1964 54.3985C52.1526 54.443 52.1012 54.4767 52.0426 54.5018C51.984 54.5263 51.9209 54.5381 51.8521 54.5381C51.7187 54.5381 51.6061 54.4921 51.5129 54.4005C51.4207 54.3095 51.3738 54.1949 51.3738 54.0578ZM52.7211 54.0578C52.7211 53.9202 52.7669 53.8056 52.8581 53.712C52.9492 53.6189 53.0628 53.5729 53.1998 53.5729C53.3369 53.5729 53.4515 53.6194 53.5442 53.712C53.6374 53.8056 53.6832 53.9202 53.6832 54.0578C53.6832 54.1954 53.6369 54.3095 53.5442 54.401C53.4515 54.4926 53.3369 54.5386 53.1998 54.5386C53.0628 54.5386 52.9492 54.4926 52.8581 54.401C52.7669 54.3095 52.7211 54.1949 52.7211 54.0578Z" fill="white"/>
<path d="M53.9248 52.5815V51.6986H54.755V50.365C54.755 50.143 54.8044 49.9174 54.9038 49.6888C55.0026 49.4601 55.1381 49.2539 55.3092 49.0708C55.4798 48.8882 55.6815 48.7404 55.9143 48.6273C56.1466 48.5143 56.3946 48.4631 56.6585 48.4728C56.9126 48.4759 57.1673 48.4795 57.423 48.4826C57.6782 48.4861 57.9328 48.4913 58.187 48.4974C58.2451 48.4974 58.3016 48.5086 58.3551 48.5317C58.4086 48.5542 58.4549 48.5854 58.4941 48.6248C58.5329 48.6642 58.5644 48.7097 58.5868 48.7624C58.6098 48.8151 58.621 48.8703 58.621 48.9291V51.6991H59.3824V52.582L53.9248 52.5815ZM55.6332 51.6986H57.7423V49.3644C57.6547 49.3644 57.5656 49.3639 57.4765 49.3619C57.3868 49.3603 57.3018 49.3588 57.2203 49.3568C57.1393 49.3552 57.0624 49.3542 56.9911 49.3542C56.9223 49.3542 56.8673 49.3542 56.825 49.3542C56.7405 49.3511 56.69 49.3496 56.6737 49.3496C56.6574 49.3496 56.6457 49.3496 56.6396 49.3496C56.5128 49.3496 56.389 49.3793 56.2683 49.4376C56.1481 49.4964 56.0406 49.5726 55.9459 49.6657C55.8517 49.7588 55.7758 49.8663 55.7192 49.987C55.6622 50.1077 55.6337 50.232 55.6337 50.3599L55.6332 51.6986Z" fill="white"/>
<path d="M59.291 51.6991H60.707V48.6396H61.581V52.0966C61.5841 52.1094 61.5856 52.1247 61.5856 52.1411C61.5856 52.2649 61.5428 52.3697 61.4562 52.4546C61.3702 52.5396 61.2652 52.582 61.1415 52.582H59.291V51.6991ZM60.0189 54.0332C60.0189 53.9647 60.0306 53.9007 60.055 53.8419C60.0795 53.7836 60.1126 53.7319 60.1554 53.6874C60.1971 53.6434 60.2481 53.6092 60.3067 53.5846C60.3652 53.5601 60.4269 53.5478 60.4921 53.5478C60.6291 53.5478 60.7432 53.5949 60.8364 53.6874C60.9291 53.781 60.9749 53.8956 60.9749 54.0332C60.9749 54.1023 60.9632 54.1652 60.9387 54.222C60.9143 54.2788 60.8802 54.3299 60.8364 54.3739C60.7921 54.4184 60.7406 54.4522 60.6825 54.4767C60.624 54.5018 60.5603 54.5136 60.4921 54.5136C60.3581 54.5136 60.2466 54.4675 60.1554 54.376C60.0637 54.2849 60.0189 54.1703 60.0189 54.0332Z" fill="white"/>
<path d="M66.0314 50.3648C66.0345 50.1459 66.0864 49.9224 66.1878 49.6932C66.2891 49.464 66.4246 49.2584 66.5952 49.0753C66.7664 48.8926 66.9671 48.7448 67.1988 48.6318C67.4296 48.5187 67.6756 48.466 67.9358 48.4722C68.1895 48.4752 68.4442 48.4788 68.6999 48.4819C68.955 48.4855 69.2102 48.4906 69.4639 48.4967C69.5225 48.4967 69.579 48.508 69.6325 48.531C69.6855 48.5535 69.7323 48.5847 69.771 48.6241C69.8102 48.6635 69.8413 48.709 69.8642 48.7617C69.8866 48.8144 69.8978 48.8696 69.8978 48.9284V51.6984H70.6598V52.5813H66.417C66.2642 52.5813 66.1261 52.5895 66.0024 52.6059C65.8786 52.6222 65.7732 52.659 65.6851 52.7163C65.5969 52.7731 65.5292 52.856 65.4828 52.9634C65.4355 53.0713 65.4115 53.2187 65.4115 53.4049V55.0423H64.5283V53.4049C64.5283 53.1465 64.5665 52.9194 64.6429 52.7235C64.7193 52.5271 64.8243 52.3603 64.9577 52.2227C65.0917 52.0856 65.2501 51.9762 65.4339 51.8943C65.6178 51.8125 65.8175 51.7542 66.0324 51.7173V50.3648H66.0314ZM66.9105 51.7035L69.0197 51.6984V49.3643C68.7758 49.3612 68.5812 49.3586 68.436 49.3566C68.2914 49.3551 68.1814 49.3535 68.1065 49.352C68.0321 49.3499 67.9832 49.3494 67.9603 49.3494H67.9262C67.7958 49.3494 67.67 49.3771 67.5477 49.4328C67.426 49.4881 67.3175 49.5633 67.2233 49.6579C67.1285 49.753 67.0531 49.863 66.9961 49.9888C66.9396 50.1147 66.911 50.2477 66.911 50.3884V51.7035H66.9105Z" fill="white"/>
<path d="M70.5674 52.5811V51.6982H72.6572V52.5811H70.5674Z" fill="white"/>
<path d="M72.5542 52.5811V51.6982H74.644V52.5811H72.5542Z" fill="white"/>
<path d="M74.5439 52.5811V51.6982H76.6338V52.5811H74.5439Z" fill="white"/>
<path d="M80.5724 43.7314C80.6279 43.8164 80.6681 43.9105 80.6946 44.0133C80.7206 44.1161 80.7333 44.2169 80.7333 44.3151C80.7333 44.4067 80.7226 44.4962 80.7017 44.5821C80.6803 44.6686 80.6493 44.7453 80.6085 44.8123C80.5678 44.8793 80.5174 44.933 80.4573 44.974C80.3972 45.0149 80.3258 45.0353 80.2449 45.0353C80.1634 45.0353 80.1027 45.0205 80.062 44.9908C80.0213 44.9612 79.9764 44.9238 79.9275 44.8783C79.9082 44.9141 79.8817 44.9545 79.8496 45.0006C79.817 45.0466 79.7768 45.0896 79.7299 45.1305C79.6831 45.1714 79.627 45.2057 79.5618 45.2333C79.4966 45.2614 79.4238 45.2753 79.3418 45.2753C79.2598 45.2753 79.192 45.2599 79.137 45.2282C79.0815 45.197 79.0377 45.1566 79.0051 45.1059C78.9725 45.0553 78.9496 44.9975 78.9364 44.932C78.9231 44.8665 78.917 44.7995 78.917 44.7305C78.917 44.6097 78.9318 44.4952 78.9608 44.3872C78.9903 44.2793 79.0194 44.2031 79.0489 44.157C79.0489 44.1601 79.0504 44.1622 79.054 44.1622C79.0571 44.1622 79.0657 44.156 79.081 44.1448C79.0953 44.1335 79.1111 44.1223 79.1274 44.111C79.1437 44.0998 79.1594 44.088 79.1737 44.0767C79.1885 44.0655 79.1992 44.0593 79.2058 44.0593C79.2094 44.0593 79.2109 44.0614 79.2109 44.0645C79.1849 44.1202 79.1645 44.1847 79.1498 44.2583C79.1355 44.332 79.1279 44.4031 79.1279 44.4716C79.1279 44.5668 79.1467 44.6456 79.1839 44.7095C79.2211 44.7734 79.2873 44.8051 79.382 44.8051C79.4763 44.8051 79.5486 44.7791 79.599 44.7269C79.6499 44.6747 79.6881 44.6133 79.7141 44.5432C79.7401 44.4732 79.7605 44.4005 79.7752 44.3253C79.7895 44.2501 79.8099 44.1877 79.8359 44.1391C79.8359 44.1458 79.8394 44.1489 79.846 44.1489C79.8588 44.1489 79.8791 44.1335 79.9072 44.1023C79.9347 44.0711 79.955 44.0558 79.9678 44.0558C79.9744 44.0558 79.978 44.0573 79.978 44.0604C79.9652 44.11 79.9586 44.1616 79.9586 44.2179C79.9586 44.3289 79.9861 44.422 80.0416 44.4972C80.0966 44.5724 80.1685 44.6103 80.2561 44.6103C80.2759 44.6103 80.2983 44.6077 80.3248 44.6026C80.3508 44.5975 80.3763 44.5898 80.4002 44.578C80.4241 44.5663 80.446 44.5494 80.4639 44.5264C80.4812 44.5033 80.4909 44.4727 80.4909 44.4328C80.4909 44.3709 80.4751 44.3049 80.444 44.2343C80.4129 44.1637 80.3798 44.1043 80.3442 44.0552C80.3865 43.9964 80.4262 43.9407 80.4639 43.8885C80.5 43.8358 80.5367 43.7841 80.5724 43.7314Z" fill="white"/>
<path d="M76.5284 51.6991H81.4054V51.0715C81.4054 50.8622 81.3987 50.7001 81.386 50.586C81.3733 50.4719 81.3412 50.3865 81.2907 50.3313C81.2398 50.276 81.166 50.2412 81.0682 50.2285C80.9704 50.2157 80.8369 50.2085 80.6678 50.2085C80.2318 50.2085 79.7973 50.207 79.3644 50.2039C78.931 50.2003 78.497 50.1988 78.0605 50.1988C77.9367 50.1988 77.8292 50.1788 77.7381 50.14C77.6469 50.1006 77.572 50.0489 77.514 49.9855C77.4554 49.9215 77.4116 49.8469 77.382 49.7619C77.3525 49.677 77.3377 49.5855 77.3377 49.4878C77.3377 49.2913 77.3887 49.0934 77.4895 48.8944C77.6586 48.5476 77.8822 48.2432 78.1603 47.9798C78.4389 47.7168 78.7471 47.4964 79.0853 47.3178C79.424 47.1398 79.781 47.0058 80.1569 46.9158C80.5323 46.8263 80.9047 46.7812 81.2719 46.7812H81.3498C81.3432 46.9444 81.3371 47.0928 81.3305 47.2273C81.3239 47.3613 81.3193 47.5066 81.3162 47.6636C81.0325 47.6636 80.7422 47.6979 80.4447 47.7665C80.1468 47.8355 79.8595 47.9394 79.5829 48.078C79.3063 48.2166 79.0527 48.39 78.8214 48.5977C78.5902 48.8054 78.4002 49.0484 78.2505 49.3261H80.325C80.5792 49.3261 80.8033 49.3302 80.9989 49.3379C81.194 49.3466 81.3651 49.366 81.5113 49.3967C81.658 49.4279 81.7797 49.4765 81.878 49.5435C81.9753 49.611 82.0553 49.7026 82.1169 49.8182C82.1791 49.9343 82.2228 50.0801 82.2488 50.2551C82.2753 50.43 82.2881 50.6433 82.2881 50.8945V51.6986H83.1183V52.5815H76.5273V51.6991H76.5284Z" fill="white"/>
<path d="M83.896 48.5068C83.9836 48.514 84.0595 48.5176 84.1226 48.5191C84.1863 48.5206 84.2683 48.5232 84.3692 48.5268C84.5999 48.5365 84.8429 48.5503 85.0965 48.5682C85.3507 48.5861 85.6008 48.6286 85.8488 48.6956C86.0959 48.7631 86.3322 48.8618 86.5568 48.9923C86.7814 49.1232 86.9806 49.3043 87.1548 49.5365C87.329 49.7683 87.4706 50.0598 87.5796 50.4118C87.6891 50.7632 87.7512 51.1919 87.7675 51.6988H88.5733V52.5817H83.0225V51.6988H86.8889C86.8696 51.3198 86.812 50.9985 86.7157 50.7351C86.62 50.4721 86.4982 50.2552 86.3521 50.0854C86.2054 49.9156 86.0398 49.7831 85.8539 49.6885C85.668 49.5938 85.4765 49.5243 85.2773 49.4803C85.0787 49.4358 84.8806 49.4087 84.6819 49.3995C84.4833 49.3892 84.2979 49.3846 84.1252 49.3846C84.0727 49.3846 84.0213 49.3857 83.9688 49.3872C83.9164 49.3892 83.868 49.3882 83.8226 49.3846L83.896 48.5068Z" fill="white"/>
<path d="M88.5112 51.6989H89.9226V48.6394H90.7967V52.0963C90.7997 52.1091 90.8018 52.1245 90.8018 52.1408C90.8018 52.2646 90.7595 52.3695 90.6744 52.4544C90.5899 52.5393 90.486 52.5818 90.3622 52.5818H88.5117L88.5112 51.6989ZM88.663 47.2179C88.663 47.0803 88.7083 46.9657 88.7995 46.8721C88.8912 46.779 89.0048 46.7324 89.1413 46.7324C89.2783 46.7324 89.3919 46.7795 89.4836 46.8721C89.5747 46.9657 89.6201 47.0803 89.6201 47.2179C89.6201 47.3555 89.5747 47.4695 89.4836 47.5611C89.3919 47.6527 89.2783 47.6987 89.1413 47.6987C89.0048 47.6987 88.8912 47.6527 88.7995 47.5611C88.7083 47.4695 88.663 47.355 88.663 47.2179ZM90.0102 47.2179C90.0102 47.0803 90.0556 46.9657 90.1467 46.8721C90.2384 46.779 90.35 46.7324 90.4839 46.7324C90.5522 46.7324 90.6158 46.7447 90.6739 46.7692C90.7325 46.7938 90.7839 46.8281 90.8282 46.8721C90.872 46.9161 90.9062 46.9677 90.9306 47.0266C90.9551 47.0854 90.9668 47.1493 90.9668 47.2179C90.9668 47.2864 90.9551 47.3498 90.9306 47.4066C90.9062 47.4639 90.872 47.5145 90.8282 47.5585C90.7839 47.603 90.7325 47.6368 90.6739 47.6614C90.6158 47.6859 90.5522 47.6982 90.4839 47.6982C90.35 47.6982 90.2384 47.6521 90.1467 47.5606C90.0556 47.4695 90.0102 47.355 90.0102 47.2179Z" fill="white"/>
<mask id="mask0_321_8511" style="mask-type:luminance" maskUnits="userSpaceOnUse" x="121" y="0" width="58" height="58">
<path d="M169.131 0H131.117C125.667 0 121.248 4.43702 121.248 9.91143V48.0881C121.248 53.5625 125.667 58 131.117 58H151.95H160.874H169.131C174.581 58 179 53.562 179 48.0881V9.91194C178.999 4.43702 174.581 0 169.131 0Z" fill="white"/>
</mask>
<g mask="url(#mask0_321_8511)">
<path d="M182.677 -0.22168H117.562V58.2233H182.677V-0.22168Z" fill="#C4253B"/>
<path d="M166.415 13.293L161.031 21.8468L152.513 16.4389L150.194 20.124L162.38 27.8614L170.085 15.6225L166.415 13.293Z" fill="white"/>
<path d="M158.902 15.1161L161.617 10.8192L157.98 8.50195L155.265 12.7957L158.902 15.1161Z" fill="white"/>
<path d="M140.474 25.9058L145.858 17.352L154.376 22.7599L156.696 19.0743L144.509 11.3369L136.805 23.5758L140.474 25.9058Z" fill="white"/>
<path d="M144.821 28.0152L153.339 33.4231L147.954 41.9769L151.623 44.3064L159.327 32.0675L147.141 24.3301L144.821 28.0152Z" fill="white"/>
<path d="M139.59 36.0731L134.205 44.6274L137.874 46.9564L145.579 34.718L141.855 32.4346L139.59 36.0731Z" fill="white"/>
</g>
</svg>
