<svg width="196" height="84" viewBox="0 0 196 84" fill="none" xmlns="http://www.w3.org/2000/svg">
<path d="M87.0139 54.5113C87.5586 54.6128 88.0202 54.8898 88.3988 55.3422C88.7773 55.7946 88.9666 56.3209 88.9666 56.921C88.9666 57.4103 88.8419 57.8535 88.5926 58.2505C88.3526 58.6383 87.9971 58.9476 87.5263 59.1784C87.0554 59.4 86.4922 59.5107 85.8367 59.5107H82.4853V49.8303H85.7398C86.7184 49.8303 87.4616 50.0565 87.9694 50.5089C88.4865 50.9613 88.745 51.5476 88.745 52.2677C88.745 52.8679 88.5834 53.3572 88.2603 53.7357C87.9371 54.105 87.5217 54.3635 87.0139 54.5113ZM83.4547 54.1096H85.7121C86.3676 54.1096 86.8708 53.9573 87.2216 53.6526C87.5817 53.3387 87.7617 52.9094 87.7617 52.3647C87.7617 51.8292 87.5817 51.4091 87.2216 51.1044C86.8708 50.7997 86.3537 50.6474 85.6705 50.6474H83.4547V54.1096ZM85.7675 58.6937C86.4691 58.6937 87.0139 58.5275 87.4016 58.1951C87.7986 57.8627 87.9971 57.4057 87.9971 56.824C87.9971 56.2424 87.7894 55.7808 87.3739 55.4391C86.9677 55.0883 86.4184 54.9129 85.7259 54.9129H83.4547V58.6937H85.7675ZM94.3355 59.6215C93.6246 59.6215 92.9829 59.4646 92.4105 59.1507C91.8473 58.8275 91.3995 58.3751 91.0672 57.7935C90.744 57.2026 90.5825 56.5148 90.5825 55.73C90.5825 54.9452 90.7486 54.262 91.081 53.6803C91.4134 53.0894 91.8658 52.637 92.4382 52.3231C93.0106 52 93.6523 51.8384 94.3632 51.8384C95.0741 51.8384 95.7158 52 96.2882 52.3231C96.8699 52.637 97.3223 53.0894 97.6454 53.6803C97.9778 54.262 98.144 54.9452 98.144 55.73C98.144 56.5055 97.9778 57.1887 97.6454 57.7796C97.3131 58.3705 96.856 58.8275 96.2744 59.1507C95.6927 59.4646 95.0464 59.6215 94.3355 59.6215ZM94.3355 58.7767C94.8341 58.7767 95.2957 58.666 95.7204 58.4444C96.1451 58.2136 96.4867 57.8719 96.7452 57.4195C97.013 56.9579 97.1469 56.3947 97.1469 55.73C97.1469 55.0652 97.0176 54.5067 96.7591 54.0543C96.5006 53.5926 96.159 53.251 95.7343 53.0294C95.3096 52.7986 94.8479 52.6832 94.3494 52.6832C93.8508 52.6832 93.3892 52.7986 92.9645 53.0294C92.5398 53.251 92.1982 53.5926 91.9397 54.0543C91.6904 54.5067 91.5657 55.0652 91.5657 55.73C91.5657 56.3947 91.6904 56.9579 91.9397 57.4195C92.1982 57.8719 92.5352 58.2136 92.9506 58.4444C93.3753 58.666 93.837 58.7767 94.3355 58.7767ZM99.745 55.7161C99.745 54.9406 99.8973 54.262 100.202 53.6803C100.516 53.0894 100.945 52.637 101.49 52.3231C102.044 52 102.667 51.8384 103.36 51.8384C104.08 51.8384 104.698 52.0046 105.215 52.337C105.742 52.6694 106.12 53.0941 106.351 53.6111V51.9492H107.32V59.5107H106.351V57.835C106.111 58.352 105.728 58.7814 105.201 59.123C104.684 59.4553 104.066 59.6215 103.346 59.6215C102.662 59.6215 102.044 59.46 101.49 59.1368C100.945 58.8137 100.516 58.3567 100.202 57.7658C99.8973 57.1749 99.745 56.4917 99.745 55.7161ZM106.351 55.73C106.351 55.1206 106.226 54.5851 105.977 54.1235C105.728 53.6619 105.386 53.3064 104.952 53.0571C104.527 52.8078 104.057 52.6832 103.54 52.6832C103.004 52.6832 102.524 52.8032 102.099 53.0433C101.675 53.2833 101.338 53.6342 101.088 54.0958C100.848 54.5482 100.728 55.0883 100.728 55.7161C100.728 56.3347 100.848 56.8794 101.088 57.3503C101.338 57.8119 101.675 58.1674 102.099 58.4167C102.524 58.6567 103.004 58.7767 103.54 58.7767C104.057 58.7767 104.527 58.6521 104.952 58.4028C105.386 58.1535 105.728 57.7981 105.977 57.3365C106.226 56.8748 106.351 56.3393 106.351 55.73ZM110.78 53.2926C110.992 52.8217 111.315 52.457 111.749 52.1985C112.192 51.94 112.733 51.8107 113.37 51.8107V52.8217H113.106C112.405 52.8217 111.842 53.011 111.417 53.3895C110.992 53.768 110.78 54.4005 110.78 55.2868V59.5107H109.81V51.9492H110.78V53.2926ZM114.662 55.7161C114.662 54.9406 114.819 54.262 115.133 53.6803C115.447 53.0894 115.876 52.637 116.421 52.3231C116.975 52 117.598 51.8384 118.29 51.8384C118.955 51.8384 119.555 52 120.091 52.3231C120.626 52.6463 121.018 53.0664 121.268 53.5834V49.2625H122.237V59.5107H121.268V57.8212C121.037 58.3474 120.658 58.7814 120.132 59.123C119.606 59.4553 118.987 59.6215 118.276 59.6215C117.584 59.6215 116.961 59.46 116.407 59.1368C115.862 58.8137 115.433 58.3567 115.119 57.7658C114.814 57.1749 114.662 56.4917 114.662 55.7161ZM121.268 55.73C121.268 55.1206 121.143 54.5851 120.894 54.1235C120.645 53.6619 120.303 53.3064 119.869 53.0571C119.444 52.8078 118.973 52.6832 118.456 52.6832C117.921 52.6832 117.441 52.8032 117.016 53.0433C116.591 53.2833 116.254 53.6342 116.005 54.0958C115.765 54.5482 115.645 55.0883 115.645 55.7161C115.645 56.3347 115.765 56.8794 116.005 57.3503C116.254 57.8119 116.591 58.1674 117.016 58.4167C117.441 58.6567 117.921 58.7767 118.456 58.7767C118.973 58.7767 119.444 58.6521 119.869 58.4028C120.303 58.1535 120.645 57.7981 120.894 57.3365C121.143 56.8748 121.268 56.3393 121.268 55.73ZM135.203 49.8303L132.101 55.7438V59.5107H131.131V55.7438L128.001 49.8303H129.095L131.616 54.8575L134.123 49.8303H135.203ZM140.209 59.6215C139.498 59.6215 138.856 59.4646 138.284 59.1507C137.72 58.8275 137.273 58.3751 136.94 57.7935C136.617 57.2026 136.456 56.5148 136.456 55.73C136.456 54.9452 136.622 54.262 136.954 53.6803C137.286 53.0894 137.739 52.637 138.311 52.3231C138.884 52 139.525 51.8384 140.236 51.8384C140.947 51.8384 141.589 52 142.161 52.3231C142.743 52.637 143.195 53.0894 143.518 53.6803C143.851 54.262 144.017 54.9452 144.017 55.73C144.017 56.5055 143.851 57.1887 143.518 57.7796C143.186 58.3705 142.729 58.8275 142.147 59.1507C141.566 59.4646 140.919 59.6215 140.209 59.6215ZM140.209 58.7767C140.707 58.7767 141.169 58.666 141.593 58.4444C142.018 58.2136 142.36 57.8719 142.618 57.4195C142.886 56.9579 143.02 56.3947 143.02 55.73C143.02 55.0652 142.891 54.5067 142.632 54.0543C142.374 53.5926 142.032 53.251 141.607 53.0294C141.183 52.7986 140.721 52.6832 140.222 52.6832C139.724 52.6832 139.262 52.7986 138.838 53.0294C138.413 53.251 138.071 53.5926 137.813 54.0543C137.563 54.5067 137.439 55.0652 137.439 55.73C137.439 56.3947 137.563 56.9579 137.813 57.4195C138.071 57.8719 138.408 58.2136 138.824 58.4444C139.248 58.666 139.71 58.7767 140.209 58.7767ZM152.612 51.9492V59.5107H151.642V58.1812C151.421 58.6521 151.079 59.0122 150.617 59.2615C150.156 59.5107 149.639 59.6354 149.066 59.6354C148.162 59.6354 147.423 59.3584 146.851 58.8044C146.278 58.2413 145.992 57.4288 145.992 56.367V51.9492H146.947V56.2562C146.947 57.0779 147.151 57.7058 147.557 58.1397C147.972 58.5736 148.536 58.7906 149.246 58.7906C149.976 58.7906 150.557 58.5598 150.991 58.0981C151.425 57.6365 151.642 56.9579 151.642 56.0624V51.9492H152.612ZM156.071 53.2926C156.284 52.8217 156.607 52.457 157.041 52.1985C157.484 51.94 158.024 51.8107 158.661 51.8107V52.8217H158.398C157.696 52.8217 157.133 53.011 156.708 53.3895C156.284 53.768 156.071 54.4005 156.071 55.2868V59.5107H155.102V51.9492H156.071V53.2926ZM169.709 49.8303V50.6336H165.443V54.2481H169.044V55.0514H165.443V59.5107H164.474V49.8303H169.709ZM172.065 50.5228C171.871 50.5228 171.705 50.4535 171.567 50.315C171.428 50.1765 171.359 50.0057 171.359 49.8026C171.359 49.5995 171.428 49.4333 171.567 49.3041C171.705 49.1656 171.871 49.0963 172.065 49.0963C172.259 49.0963 172.425 49.1656 172.564 49.3041C172.702 49.4333 172.772 49.5995 172.772 49.8026C172.772 50.0057 172.702 50.1765 172.564 50.315C172.425 50.4535 172.259 50.5228 172.065 50.5228ZM172.55 51.9492V59.5107H171.581V51.9492H172.55ZM181.864 55.3422C181.864 55.6746 181.854 55.9285 181.836 56.1039H175.562C175.59 56.6763 175.729 57.1657 175.978 57.5719C176.227 57.9781 176.555 58.2874 176.961 58.4998C177.367 58.7029 177.811 58.8044 178.291 58.8044C178.918 58.8044 179.445 58.6521 179.869 58.3474C180.303 58.0428 180.59 57.6319 180.728 57.1149H181.753C181.568 57.8535 181.171 58.4582 180.562 58.9291C179.962 59.3907 179.205 59.6215 178.291 59.6215C177.58 59.6215 176.943 59.4646 176.379 59.1507C175.816 58.8275 175.373 58.3751 175.05 57.7935C174.736 57.2026 174.579 56.5148 174.579 55.73C174.579 54.9452 174.736 54.2574 175.05 53.6665C175.364 53.0756 175.802 52.6232 176.366 52.3093C176.929 51.9954 177.57 51.8384 178.291 51.8384C179.011 51.8384 179.639 51.9954 180.174 52.3093C180.719 52.6232 181.134 53.0479 181.42 53.5834C181.716 54.1096 181.864 54.6959 181.864 55.3422ZM180.88 55.3145C180.89 54.7513 180.774 54.2712 180.534 53.8742C180.303 53.4772 179.985 53.1772 179.579 52.974C179.172 52.7709 178.729 52.6694 178.249 52.6694C177.529 52.6694 176.915 52.9002 176.407 53.3618C175.899 53.8234 175.618 54.4743 175.562 55.3145H180.88ZM184.884 49.2625V59.5107H183.914V49.2625H184.884ZM186.913 55.7161C186.913 54.9406 187.07 54.262 187.384 53.6803C187.698 53.0894 188.127 52.637 188.672 52.3231C189.226 52 189.849 51.8384 190.541 51.8384C191.206 51.8384 191.806 52 192.342 52.3231C192.877 52.6463 193.269 53.0664 193.519 53.5834V49.2625H194.488V59.5107H193.519V57.8212C193.288 58.3474 192.909 58.7814 192.383 59.123C191.857 59.4553 191.238 59.6215 190.527 59.6215C189.835 59.6215 189.212 59.46 188.658 59.1368C188.113 58.8137 187.684 58.3567 187.37 57.7658C187.065 57.1749 186.913 56.4917 186.913 55.7161ZM193.519 55.73C193.519 55.1206 193.394 54.5851 193.145 54.1235C192.896 53.6619 192.554 53.3064 192.12 53.0571C191.695 52.8078 191.224 52.6832 190.707 52.6832C190.172 52.6832 189.692 52.8032 189.267 53.0433C188.842 53.2833 188.505 53.6342 188.256 54.0958C188.016 54.5482 187.896 55.0883 187.896 55.7161C187.896 56.3347 188.016 56.8794 188.256 57.3503C188.505 57.8119 188.842 58.1674 189.267 58.4167C189.692 58.6567 190.172 58.7767 190.707 58.7767C191.224 58.7767 191.695 58.6521 192.12 58.4028C192.554 58.1535 192.896 57.7981 193.145 57.3365C193.394 56.8748 193.519 56.3393 193.519 55.73Z" fill="white"/>
<path d="M103.987 18.4399V37H99.4664V25.8692L95.3155 37H91.6669L87.4895 25.8428V37H82.9685V18.4399H88.3091L93.5176 31.2892L98.6732 18.4399H103.987ZM114.932 18.4399V37H110.411V18.4399H114.932ZM128.335 18.4399C130.291 18.4399 132.001 18.8276 133.464 19.6032C134.927 20.3787 136.055 21.4715 136.848 22.8816C137.659 24.2741 138.064 25.8868 138.064 27.7199C138.064 29.5354 137.659 31.1482 136.848 32.5583C136.055 33.9683 134.918 35.0611 133.437 35.8367C131.975 36.6122 130.274 37 128.335 37H121.381V18.4399H128.335ZM128.044 33.087C129.754 33.087 131.084 32.62 132.036 31.6858C132.988 30.7516 133.464 29.4297 133.464 27.7199C133.464 26.0102 132.988 24.6795 132.036 23.7277C131.084 22.7759 129.754 22.3 128.044 22.3H125.902V33.087H128.044ZM155.317 33.7216H148.39L147.28 37H142.547L149.263 18.4399H154.498L161.213 37H156.428L155.317 33.7216ZM154.154 30.2316L151.854 23.4368L149.58 30.2316H154.154ZM183.033 37H178.512L170.951 25.5519V37H166.43V18.4399H170.951L178.512 29.9408V18.4399H183.033V37ZM194.004 18.4399V37H189.483V18.4399H194.004Z" fill="white"/>
<g filter="url(#filter0_d_235_257)">
<path d="M13 17.8967C13 12.4309 17.5957 8 23.2648 8H60.649C66.3181 8 70.9138 12.4309 70.9138 17.8967V56.0172C70.9138 61.4829 66.3181 65.9138 60.649 65.9138H23.2648C17.5957 65.9138 13 61.4829 13 56.0172V17.8967Z" fill="url(#paint0_linear_235_257)"/>
<path d="M49.4247 26.6937L52.4118 21.9502L48.429 19.4082L45.4419 24.1063L49.4247 26.6937Z" fill="white"/>
<path d="M53.8058 38.7896L61.4727 27.0602L57.8589 24.8375L52.5385 33.0471L36.0641 22.9672L28.2705 34.6966L32.0089 36.9569L37.4581 28.7708L53.8058 38.7896Z" fill="white"/>
<path d="M44.8082 43.9823L36.381 38.8507L38.7254 35.3075L50.8277 42.6994L43.2875 54.4899L39.4858 52.2295L44.8082 43.9823Z" fill="white"/>
<path d="M37.2047 44.471L33.4029 42.2107L25.7993 53.8179L29.4744 56.1393L37.2047 44.471Z" fill="white"/>
</g>
<defs>
<filter id="filter0_d_235_257" x="0.296729" y="0.444624" width="83.3206" height="83.3206" filterUnits="userSpaceOnUse" color-interpolation-filters="sRGB">
<feFlood flood-opacity="0" result="BackgroundImageFix"/>
<feColorMatrix in="SourceAlpha" type="matrix" values="0 0 0 0 0 0 0 0 0 0 0 0 0 0 0 0 0 0 127 0" result="hardAlpha"/>
<feOffset dy="5.1479"/>
<feGaussianBlur stdDeviation="6.35164"/>
<feComposite in2="hardAlpha" operator="out"/>
<feColorMatrix type="matrix" values="0 0 0 0 0.152941 0 0 0 0 0.145098 0 0 0 0 0.2 0 0 0 0.26 0"/>
<feBlend mode="normal" in2="BackgroundImageFix" result="effect1_dropShadow_235_257"/>
<feBlend mode="normal" in="SourceGraphic" in2="effect1_dropShadow_235_257" result="shape"/>
</filter>
<linearGradient id="paint0_linear_235_257" x1="41.9569" y1="8" x2="41.898" y2="41.8442" gradientUnits="userSpaceOnUse">
<stop stop-color="#B00E1C"/>
<stop offset="1" stop-color="#87000C"/>
</linearGradient>
</defs>
</svg>
