<svg width="313" height="53" viewBox="0 0 313 53" fill="none" xmlns="http://www.w3.org/2000/svg">
<path opacity="0.6" d="M12.489 22.661C12.489 23.995 12.029 25.1067 11.109 25.996C10.2043 26.87 8.81667 27.307 6.946 27.307H3.864V34H1.771V17.969H6.946C8.75533 17.969 10.1277 18.406 11.063 19.28C12.0137 20.154 12.489 21.281 12.489 22.661ZM6.946 25.582C8.11133 25.582 8.97 25.329 9.522 24.823C10.074 24.317 10.35 23.5963 10.35 22.661C10.35 20.683 9.21533 19.694 6.946 19.694H3.864V25.582H6.946ZM20.5873 34.207C19.4067 34.207 18.3333 33.9387 17.3673 33.402C16.4167 32.8653 15.6653 32.1063 15.1133 31.125C14.5767 30.1283 14.3083 28.9783 14.3083 27.675C14.3083 26.387 14.5843 25.2523 15.1363 24.271C15.7037 23.2743 16.4703 22.5153 17.4363 21.994C18.4023 21.4573 19.4833 21.189 20.6793 21.189C21.8753 21.189 22.9563 21.4573 23.9223 21.994C24.8883 22.5153 25.6473 23.2667 26.1993 24.248C26.7667 25.2293 27.0503 26.3717 27.0503 27.675C27.0503 28.9783 26.759 30.1283 26.1763 31.125C25.609 32.1063 24.8347 32.8653 23.8533 33.402C22.872 33.9387 21.7833 34.207 20.5873 34.207ZM20.5873 32.367C21.3387 32.367 22.044 32.1907 22.7033 31.838C23.3627 31.4853 23.8917 30.9563 24.2903 30.251C24.7043 29.5457 24.9113 28.687 24.9113 27.675C24.9113 26.663 24.712 25.8043 24.3133 25.099C23.9147 24.3937 23.3933 23.8723 22.7493 23.535C22.1053 23.1823 21.4077 23.006 20.6563 23.006C19.8897 23.006 19.1843 23.1823 18.5403 23.535C17.9117 23.8723 17.4057 24.3937 17.0223 25.099C16.639 25.8043 16.4473 26.663 16.4473 27.675C16.4473 28.7023 16.6313 29.5687 16.9993 30.274C17.3827 30.9793 17.8887 31.5083 18.5173 31.861C19.146 32.1983 19.836 32.367 20.5873 32.367ZM46.5923 21.396L42.6593 34H40.4973L37.4613 23.995L34.4253 34H32.2633L28.3073 21.396H30.4463L33.3443 31.976L36.4723 21.396H38.6113L41.6703 31.999L44.5223 21.396H46.5923ZM60.1694 27.215C60.1694 27.6137 60.1464 28.0353 60.1004 28.48H50.0264C50.1031 29.722 50.5248 30.6957 51.2914 31.401C52.0734 32.091 53.0164 32.436 54.1204 32.436C55.0251 32.436 55.7764 32.229 56.3744 31.815C56.9878 31.3857 57.4171 30.8183 57.6624 30.113H59.9164C59.5791 31.3243 58.9044 32.3133 57.8924 33.08C56.8804 33.8313 55.6231 34.207 54.1204 34.207C52.9244 34.207 51.8511 33.9387 50.9004 33.402C49.9651 32.8653 49.2291 32.1063 48.6924 31.125C48.1558 30.1283 47.8874 28.9783 47.8874 27.675C47.8874 26.3717 48.1481 25.2293 48.6694 24.248C49.1908 23.2667 49.9191 22.5153 50.8544 21.994C51.8051 21.4573 52.8938 21.189 54.1204 21.189C55.3164 21.189 56.3744 21.4497 57.2944 21.971C58.2144 22.4923 58.9198 23.213 59.4104 24.133C59.9164 25.0377 60.1694 26.065 60.1694 27.215ZM58.0074 26.778C58.0074 25.9807 57.8311 25.2983 57.4784 24.731C57.1258 24.1483 56.6428 23.7113 56.0294 23.42C55.4314 23.1133 54.7644 22.96 54.0284 22.96C52.9704 22.96 52.0658 23.2973 51.3144 23.972C50.5784 24.6467 50.1568 25.582 50.0494 26.778H58.0074ZM65.0251 23.443C65.3931 22.7223 65.9145 22.1627 66.5891 21.764C67.2791 21.3653 68.1148 21.166 69.0961 21.166V23.328H68.5441C66.1981 23.328 65.0251 24.6007 65.0251 27.146V34H62.9321V21.396H65.0251V23.443ZM83.0122 27.215C83.0122 27.6137 82.9892 28.0353 82.9432 28.48H72.8692C72.9459 29.722 73.3675 30.6957 74.1342 31.401C74.9162 32.091 75.8592 32.436 76.9632 32.436C77.8679 32.436 78.6192 32.229 79.2172 31.815C79.8305 31.3857 80.2599 30.8183 80.5052 30.113H82.7592C82.4219 31.3243 81.7472 32.3133 80.7352 33.08C79.7232 33.8313 78.4659 34.207 76.9632 34.207C75.7672 34.207 74.6939 33.9387 73.7432 33.402C72.8079 32.8653 72.0719 32.1063 71.5352 31.125C70.9985 30.1283 70.7302 28.9783 70.7302 27.675C70.7302 26.3717 70.9909 25.2293 71.5122 24.248C72.0335 23.2667 72.7619 22.5153 73.6972 21.994C74.6479 21.4573 75.7365 21.189 76.9632 21.189C78.1592 21.189 79.2172 21.4497 80.1372 21.971C81.0572 22.4923 81.7625 23.213 82.2532 24.133C82.7592 25.0377 83.0122 26.065 83.0122 27.215ZM80.8502 26.778C80.8502 25.9807 80.6739 25.2983 80.3212 24.731C79.9685 24.1483 79.4855 23.7113 78.8722 23.42C78.2742 23.1133 77.6072 22.96 76.8712 22.96C75.8132 22.96 74.9085 23.2973 74.1572 23.972C73.4212 24.6467 72.9995 25.582 72.8922 26.778H80.8502ZM84.9929 27.652C84.9929 26.364 85.2536 25.237 85.7749 24.271C86.2962 23.2897 87.0092 22.5307 87.9139 21.994C88.8339 21.4573 89.8612 21.189 90.9959 21.189C91.9772 21.189 92.8896 21.419 93.7329 21.879C94.5762 22.3237 95.2202 22.914 95.6649 23.65V16.98H97.7809V34H95.6649V31.631C95.2509 32.3823 94.6376 33.0033 93.8249 33.494C93.0122 33.9693 92.0616 34.207 90.9729 34.207C89.8536 34.207 88.8339 33.931 87.9139 33.379C87.0092 32.827 86.2962 32.0527 85.7749 31.056C85.2536 30.0593 84.9929 28.9247 84.9929 27.652ZM95.6649 27.675C95.6649 26.7243 95.4732 25.8963 95.0899 25.191C94.7066 24.4857 94.1852 23.949 93.5259 23.581C92.8819 23.1977 92.1689 23.006 91.3869 23.006C90.6049 23.006 89.8919 23.19 89.2479 23.558C88.6039 23.926 88.0902 24.4627 87.7069 25.168C87.3236 25.8733 87.1319 26.7013 87.1319 27.652C87.1319 28.618 87.3236 29.4613 87.7069 30.182C88.0902 30.8873 88.6039 31.4317 89.2479 31.815C89.8919 32.183 90.6049 32.367 91.3869 32.367C92.1689 32.367 92.8819 32.183 93.5259 31.815C94.1852 31.4317 94.7066 30.8873 95.0899 30.182C95.4732 29.4613 95.6649 28.6257 95.6649 27.675ZM109.543 23.742C109.972 22.9907 110.601 22.3773 111.429 21.902C112.257 21.4267 113.2 21.189 114.258 21.189C115.392 21.189 116.412 21.4573 117.317 21.994C118.221 22.5307 118.934 23.2897 119.456 24.271C119.977 25.237 120.238 26.364 120.238 27.652C120.238 28.9247 119.977 30.0593 119.456 31.056C118.934 32.0527 118.214 32.827 117.294 33.379C116.389 33.931 115.377 34.207 114.258 34.207C113.169 34.207 112.211 33.9693 111.383 33.494C110.57 33.0187 109.957 32.413 109.543 31.677V34H107.45V16.98H109.543V23.742ZM118.099 27.652C118.099 26.7013 117.907 25.8733 117.524 25.168C117.14 24.4627 116.619 23.926 115.96 23.558C115.316 23.19 114.603 23.006 113.821 23.006C113.054 23.006 112.341 23.1977 111.682 23.581C111.038 23.949 110.516 24.4933 110.118 25.214C109.734 25.9193 109.543 26.7397 109.543 27.675C109.543 28.6257 109.734 29.4613 110.118 30.182C110.516 30.8873 111.038 31.4317 111.682 31.815C112.341 32.183 113.054 32.367 113.821 32.367C114.603 32.367 115.316 32.183 115.96 31.815C116.619 31.4317 117.14 30.8873 117.524 30.182C117.907 29.4613 118.099 28.618 118.099 27.652ZM133.849 21.396L126.259 39.934H124.097L126.581 33.862L121.498 21.396H123.821L127.777 31.608L131.687 21.396H133.849Z" fill="white"/>
<path d="M168.992 18.7746C170.277 18.8158 171.389 19.0592 172.22 19.3213C172.288 19.2726 172.366 19.2052 172.445 19.1453C171.505 18.9019 170.325 18.7184 168.992 18.7708" fill="#D0B894"/>
<path d="M176.028 1.29578C176.935 1.99978 178.058 2.39297 179.215 2.39297C179.709 2.39297 180.196 2.32182 180.661 2.18702L180.196 3.2917H176.028C176.01 3.2917 175.987 3.2917 175.969 3.2917H171.857L171.393 2.18327C171.857 2.31808 172.344 2.38923 172.838 2.38923C173.995 2.38923 175.122 1.99604 176.028 1.28829M182.514 0.00012207C181.72 0.936292 180.533 1.5317 179.211 1.5317C177.89 1.5317 176.819 0.988718 176.025 0.131186C175.235 0.996207 174.096 1.53544 172.834 1.53544C171.516 1.53544 170.333 0.940037 169.535 0.00012207L171.288 4.15297H176.025H180.762L182.514 0.00012207Z" fill="#D0B894"/>
<path d="M183.117 48.9888C183.117 48.9888 183.126 48.9847 183.13 48.9806H183.113V48.9888H183.117Z" fill="#D0B894"/>
<path d="M164.382 13.9265L164.85 14.6305C164.94 14.5669 165.041 14.5257 165.157 14.5257C165.464 14.5257 165.711 14.7766 165.711 15.0799C165.711 15.2746 165.603 15.4394 165.453 15.5367L165.921 16.237C166.295 15.9898 166.546 15.5629 166.546 15.0799C166.546 14.9338 166.52 14.7953 166.479 14.6642C166.441 14.5594 166.419 14.5032 166.363 14.4021C166.138 14.0052 165.719 13.728 165.236 13.7018L164.876 13.1663L168.198 10.957L168.565 8.89367L170.362 7.54558L169.864 6.87903L167.804 8.42558L167.441 10.4589L163.906 13.1514L164.386 13.9265H164.382Z" fill="#D0B894"/>
<path d="M168.944 9.80676L171.146 10.2786L169.731 10.4771L168.738 10.9676L168.944 9.80676Z" fill="#D0B894"/>
<path d="M191.949 37.5002C191.837 33.7293 190.152 30.3179 187.448 28.3669C185.231 26.7679 183.651 24.4388 182.996 21.8025C182.326 19.0427 182.146 17.8331 182.112 17.2827L182.277 17.1029C183.367 15.65 184.003 13.7964 184.003 11.7256C184.003 9.15672 182.869 6.7414 180.895 5.09374L180.775 5.00012H171.29V8.62497H171.721C173.758 8.62497 175.417 10.2839 175.417 12.321C175.417 14.3581 173.758 16.0132 171.721 16.0132V16.0207C164.688 16.1143 159 21.8549 159 28.8987C159 33.8042 161.09 37.7399 164.49 39.8444C164.516 39.8593 164.542 39.8781 164.565 39.8968C165.654 40.5559 166.886 41.0127 168.208 41.2861V46.3564H165.021C163.958 46.3564 163.07 47.109 162.865 48.1164C162.838 48.2474 162.823 48.3822 162.823 48.5133V48.5545L162.816 48.9851H182.936C184.516 48.9252 185.984 48.386 187.265 47.506C184.981 49.8427 181.82 51.3293 178.39 51.4416H173.398V52.3029H178.409C184.73 52.097 190.212 47.5247 191.459 41.4246C191.777 40.3087 191.957 39.1291 191.957 37.8934C191.957 37.7661 191.949 37.635 191.949 37.5002ZM180.461 5.85765C182.172 7.3368 183.142 9.46378 183.142 11.7256C183.142 15.4178 181.03 18.2975 177.869 19.1475C179.974 17.1366 181.169 14.242 181.169 11.0216C181.169 9.19042 180.697 7.43042 179.862 5.85765H180.465H180.461ZM178.881 5.85765C179.802 7.40421 180.307 9.17544 180.307 11.0216C180.307 14.4592 178.862 17.4736 176.338 19.3198L176.226 19.4059C175.978 19.4134 176.027 19.4134 175.488 19.4471C175.349 19.4546 174.982 19.4995 174.75 19.5332C174.503 19.5669 174.26 19.6194 174.031 19.6718C174.031 19.6605 174.02 19.6605 174.02 19.6605C175.274 18.6457 177.353 16.5337 178.102 13.1673C178.633 10.8306 178.315 8.76727 177.869 7.29187C177.791 7.03348 177.54 6.32948 177.36 5.85765H178.881ZM164.86 19.1513C165.033 19.0314 165.197 18.9191 165.366 18.8068C165.71 18.5858 166.062 18.3761 166.422 18.1889C166.609 18.0953 166.789 18.0091 166.98 17.923C167.725 17.5897 168.515 17.3201 169.332 17.1516C169.538 17.1067 169.743 17.0655 169.961 17.0318C170.208 16.9868 170.459 16.9569 170.71 16.9382C170.889 16.9194 171.077 16.9045 171.268 16.897C171.474 16.8895 171.885 16.8633 171.885 16.8633C174.316 16.7696 176.267 14.7737 176.267 12.3285C176.267 9.88318 174.454 8.01459 172.144 7.78991V5.86514H176.387C176.413 5.92506 176.446 5.98497 176.48 6.05238C177.038 7.26565 177.959 9.85697 177.263 12.9763C176.798 15.0546 175.784 16.6274 174.814 17.7096C174.136 18.4847 173.492 19.0052 173.054 19.3235C171.447 18.818 168.819 18.3686 165.879 19.3572C164.789 19.7167 163.853 20.2185 163.063 20.7652C163.063 20.7577 163.067 20.754 163.07 20.7502C163.097 20.7203 163.119 20.6903 163.145 20.6641C163.284 20.5256 163.419 20.387 163.557 20.2597C163.823 20.0013 164.089 19.7542 164.374 19.522C164.527 19.3909 164.692 19.2711 164.853 19.1513M159.861 28.8987C159.861 28.468 159.887 28.0374 159.929 27.618C159.97 27.2061 160.041 26.7904 160.127 26.3897C160.172 26.1838 160.221 25.9853 160.273 25.7906C160.326 25.5921 160.386 25.4011 160.445 25.2139C160.445 25.1952 160.453 25.1802 160.453 25.1615C160.472 25.1203 160.487 25.0679 160.505 25.0229C160.558 24.8844 160.599 24.7571 160.651 24.6185C160.73 24.4275 160.805 24.2403 160.884 24.0605C161.734 22.8997 163.419 21.0798 166.16 20.1698C168.178 19.4883 170.043 19.5407 171.47 19.8178C171.889 19.8965 172.267 19.9901 172.604 20.0837H172.612C172.612 20.0837 172.612 20.0912 172.623 20.0912C172.458 20.1511 172.305 20.2148 172.151 20.2709C172.02 20.3308 171.893 20.3833 171.766 20.4432C171.605 20.5218 171.44 20.5967 171.286 20.6828C171.122 20.769 170.968 20.8551 170.803 20.9487C170.657 21.0348 170.522 21.121 170.384 21.2071C170.238 21.3045 170.099 21.3981 169.972 21.4917C169.695 21.6902 169.436 21.8961 169.182 22.1096H169.163C167.676 22.3492 164.565 23.1843 162.153 26.0415C160.985 27.4008 160.314 28.8537 159.929 30.1232C159.91 29.9247 159.891 29.73 159.887 29.5203C159.876 29.3143 159.869 29.1009 159.869 28.8949M163.037 37.5302C162.857 37.3429 162.677 37.1445 162.513 36.9385C162.393 36.7925 162.273 36.6389 162.161 36.4816C162.041 36.3206 161.928 36.1484 161.82 35.9761C161.801 35.9462 161.779 35.9162 161.756 35.8788C161.131 34.8752 160.64 33.7405 160.322 32.4936C160.475 31.0406 161.007 28.7152 162.797 26.5994C164.179 24.9668 165.804 24.0493 167.16 23.54C167.459 23.4277 167.729 23.3341 167.995 23.2554H168.002C167.89 23.3865 167.778 23.5213 167.665 23.6599C167.564 23.7797 167.459 23.9108 167.373 24.0493C167.347 24.0643 167.339 24.083 167.321 24.1092C167.235 24.2328 167.148 24.3489 167.062 24.4799C166.957 24.6335 166.856 24.787 166.763 24.9518C166.253 25.3899 165.388 26.225 164.598 27.4457C163.801 28.674 163.07 30.273 162.82 32.2576C162.509 34.628 163.018 36.6576 163.602 38.0806C163.404 37.9084 163.217 37.7286 163.033 37.5302M165.096 39.189C164.426 38.0357 163.269 35.538 163.67 32.3662C163.935 30.2542 164.797 28.5953 165.662 27.427C165.325 28.4905 165.145 29.6364 165.145 30.8122C165.145 35.1523 167.051 38.7846 170.271 40.6682V40.6869C168.332 40.6083 166.579 40.0953 165.093 39.1928M170.271 41.5482V46.3601H169.069V41.4284C169.466 41.4808 169.86 41.5332 170.271 41.5482ZM166.605 48.1201H163.763C163.954 47.5959 164.441 47.2176 165.025 47.2176H167.017C166.811 47.4835 166.665 47.7868 166.605 48.1201ZM182.962 48.1276H176.611C176.791 47.5959 177.282 47.2176 177.866 47.2176H181.921V41.668H181.453C178.12 41.668 175.821 39.1404 175.787 35.5268C175.821 32.2015 178.367 29.891 182.007 29.891V29.0335C177.892 29.0335 175.005 31.6622 174.937 35.4406H174.926V35.5942H174.937C174.997 39.5186 177.473 42.2971 181.06 42.5031V46.3601H177.866C176.81 46.3601 175.915 47.124 175.709 48.1276L167.478 48.1201C167.658 47.6146 168.137 47.2364 168.725 47.2176H171.129V35.508H170.268V39.6422C167.587 37.8485 165.999 34.6318 165.999 30.8159C165.999 27.6816 167.373 24.8619 169.538 22.9296C170.466 22.0983 171.541 21.428 172.717 20.9637C173.893 20.4994 175.181 20.2485 176.525 20.2485C178.412 20.1024 180.071 19.3385 181.345 18.1439C181.483 19.0389 181.749 20.3271 182.161 22.001C182.865 24.8432 184.557 27.3521 186.947 29.0634C189.437 30.8571 190.983 34.0214 191.088 37.5189C191.253 43.1547 187.609 47.8879 182.962 48.1276Z" fill="#D0B894"/>
<path d="M210.69 36.1198V38.2131H200.609V24.7734H210.42V26.8667H203.107V30.3568H209.597V32.4126H203.107V36.1198H210.69Z" fill="#D0B894"/>
<path d="M217.725 37.9632C216.759 37.6674 215.995 37.278 215.43 36.7912L216.295 34.8514C216.845 35.2858 217.523 35.6415 218.324 35.9149C219.126 36.192 219.927 36.3268 220.736 36.3268C221.736 36.3268 222.481 36.1658 222.971 35.8475C223.466 35.5255 223.713 35.106 223.713 34.5818C223.713 34.1961 223.578 33.8778 223.301 33.6306C223.024 33.3798 222.679 33.185 222.252 33.0427C221.833 32.9042 221.256 32.7394 220.526 32.5597C219.504 32.3163 218.676 32.0766 218.04 31.8295C217.407 31.5861 216.86 31.2041 216.407 30.6873C215.95 30.1668 215.726 29.4666 215.726 28.5828C215.726 27.8414 215.928 27.1673 216.328 26.5607C216.733 25.9541 217.339 25.4672 218.152 25.1115C218.968 24.7558 219.961 24.5723 221.14 24.5723C221.96 24.5723 222.769 24.6734 223.563 24.8756C224.357 25.0815 225.039 25.3774 225.619 25.7593L224.829 27.6991C224.241 27.3546 223.623 27.0924 222.986 26.9127C222.346 26.7329 221.724 26.6431 221.122 26.6431C220.137 26.6431 219.407 26.8116 218.923 27.1411C218.444 27.4744 218.204 27.9125 218.204 28.4667C218.204 28.8487 218.339 29.1632 218.616 29.4066C218.89 29.6501 219.242 29.8448 219.661 29.9833C220.084 30.1256 220.657 30.2866 221.387 30.4626C222.387 30.6911 223.207 30.9345 223.848 31.1816C224.488 31.4325 225.035 31.8145 225.492 32.3238C225.945 32.8368 226.173 33.5295 226.173 34.3946C226.173 35.136 225.971 35.8101 225.567 36.4092C225.166 37.0121 224.552 37.4952 223.732 37.8509C222.912 38.2066 221.915 38.3901 220.736 38.3901C219.699 38.3901 218.695 38.2441 217.729 37.9483" fill="#D0B894"/>
<path d="M240.31 25.3464C241.175 25.7321 241.834 26.2825 242.294 26.9978C242.755 27.7168 242.987 28.5668 242.987 29.5516C242.987 30.5365 242.755 31.3753 242.294 32.098C241.834 32.817 241.171 33.3712 240.31 33.7569C239.445 34.1426 238.43 34.3336 237.269 34.3336H234.232V38.2131H231.734V24.7734H237.265C238.426 24.7734 239.445 24.9644 240.306 25.3501M239.621 31.5326C240.186 31.072 240.467 30.4092 240.467 29.5554C240.467 28.7016 240.186 28.0388 239.621 27.5782C239.059 27.1176 238.231 26.8854 237.145 26.8854H234.228V32.2253H237.145C238.235 32.2253 239.059 31.9969 239.621 31.5326Z" fill="#D0B894"/>
<path d="M251.344 37.5144C250.243 36.9227 249.378 36.0951 248.752 35.0391C248.123 33.9831 247.812 32.7998 247.812 31.4967C247.812 30.1935 248.127 29.0102 248.752 27.9542C249.378 26.8945 250.243 26.0706 251.344 25.479C252.445 24.8798 253.684 24.584 255.051 24.584C256.418 24.584 257.657 24.8798 258.758 25.479C259.859 26.0706 260.724 26.8945 261.35 27.943C261.975 28.9915 262.289 30.1785 262.289 31.4967C262.289 32.8148 261.975 33.9981 261.35 35.0466C260.724 36.0989 259.855 36.9227 258.758 37.5144C257.657 38.1098 256.422 38.4093 255.051 38.4093C253.68 38.4093 252.445 38.1135 251.344 37.5144ZM257.47 35.6121C258.185 35.2076 258.751 34.6459 259.159 33.9232C259.567 33.2005 259.773 32.3916 259.773 31.4967C259.773 30.6017 259.567 29.7928 259.159 29.0664C258.747 28.3436 258.185 27.7819 257.47 27.3775C256.751 26.9768 255.946 26.7746 255.047 26.7746C254.148 26.7746 253.347 26.9731 252.628 27.3775C251.913 27.7819 251.347 28.3474 250.943 29.0664C250.531 29.7928 250.325 30.5979 250.325 31.4967C250.325 32.3954 250.531 33.2005 250.943 33.9232C251.351 34.6459 251.913 35.2076 252.628 35.6121C253.347 36.0165 254.152 36.215 255.047 36.215C255.942 36.215 256.751 36.0165 257.47 35.6121Z" fill="#D0B894"/>
<path d="M276.824 38.2131L274.079 34.2774C273.963 34.2887 273.787 34.2962 273.558 34.2962H270.525V38.2131H268.027V24.7734H273.558C274.723 24.7734 275.738 24.9644 276.603 25.3501C277.468 25.7358 278.127 26.2863 278.587 27.0015C279.048 27.7205 279.28 28.5705 279.28 29.5591C279.28 30.5477 279.029 31.439 278.539 32.1729C278.044 32.8994 277.34 33.4461 276.419 33.8056L279.509 38.2206H276.82L276.824 38.2131ZM275.921 27.5745C275.359 27.1139 274.532 26.8817 273.446 26.8817H270.529V32.2441H273.446C274.536 32.2441 275.359 32.0082 275.921 31.5401C276.487 31.072 276.767 30.4092 276.767 29.5554C276.767 28.7016 276.487 28.0388 275.921 27.5782" fill="#D0B894"/>
<path d="M286.319 37.9632C285.353 37.6674 284.585 37.278 284.023 36.7912L284.885 34.8514C285.439 35.2858 286.109 35.6415 286.911 35.9149C287.712 36.192 288.513 36.3268 289.322 36.3268C290.318 36.3268 291.067 36.1658 291.558 35.8475C292.052 35.5255 292.299 35.106 292.299 34.5818C292.299 34.1961 292.161 33.8778 291.887 33.6306C291.61 33.3798 291.262 33.185 290.839 33.0427C290.416 32.9042 289.839 32.7394 289.112 32.5597C288.09 32.3163 287.259 32.0766 286.626 31.8295C285.993 31.5861 285.446 31.2041 284.993 30.6873C284.54 30.1668 284.312 29.4666 284.312 28.5828C284.312 27.8414 284.514 27.1673 284.915 26.5607C285.319 25.9541 285.926 25.4672 286.738 25.1115C287.555 24.7558 288.547 24.5723 289.727 24.5723C290.543 24.5723 291.352 24.6734 292.146 24.8756C292.94 25.0815 293.625 25.3774 294.201 25.7593L293.411 27.6991C292.823 27.3546 292.209 27.0924 291.565 26.9127C290.929 26.7329 290.307 26.6431 289.7 26.6431C288.716 26.6431 287.985 26.8116 287.502 27.1411C287.019 27.4744 286.783 27.9125 286.783 28.4667C286.783 28.8487 286.918 29.1632 287.195 29.4066C287.472 29.6501 287.821 29.8448 288.24 29.9833C288.667 30.1256 289.24 30.2866 289.966 30.4626C290.97 30.6911 291.786 30.9345 292.427 31.1816C293.067 31.4325 293.614 31.8145 294.067 32.3238C294.524 32.8368 294.748 33.5295 294.748 34.3946C294.748 35.136 294.546 35.8101 294.142 36.4092C293.741 37.0121 293.127 37.4952 292.307 37.8509C291.49 38.2066 290.491 38.3901 289.315 38.3901C288.274 38.3901 287.274 38.2441 286.308 37.9483" fill="#D0B894"/>
<path d="M309.046 35.1031H302.324L300.998 38.2111H298.426L304.473 24.7715H306.934L313 38.2111H310.39L309.046 35.1031ZM308.218 33.1446L305.683 27.2692L303.17 33.1446H308.218Z" fill="#D0B894"/>
<path d="M243.288 47.3185H244.183V49.1271C243.685 49.6776 242.97 49.951 242.041 49.951C241.259 49.951 240.603 49.6926 240.075 49.1796C239.547 48.6665 239.285 48.015 239.285 47.2248C239.285 46.4347 239.555 45.7794 240.09 45.2551C240.626 44.7309 241.277 44.4688 242.041 44.4688C242.805 44.4688 243.438 44.6897 243.944 45.1353L243.468 45.8168C243.262 45.6408 243.052 45.5173 242.843 45.4499C242.633 45.3825 242.389 45.3487 242.112 45.3487C241.577 45.3487 241.128 45.521 240.764 45.8693C240.401 46.2175 240.218 46.6706 240.218 47.2323C240.218 47.794 240.394 48.2471 240.749 48.5879C241.101 48.9287 241.532 49.1009 242.034 49.1009C242.536 49.1009 242.955 48.9923 243.296 48.7751V47.3222L243.288 47.3185Z" fill="#D0B894"/>
<path d="M251.095 46.3184C251.095 47.1909 250.713 47.7414 249.953 47.9698L251.338 49.8946H250.204L248.938 48.1159H247.762V49.8946H246.867V44.5996H248.837C249.646 44.5996 250.222 44.7344 250.571 45.0078C250.919 45.2811 251.095 45.7155 251.095 46.3184ZM249.908 47.0674C250.091 46.9101 250.181 46.6592 250.181 46.3147C250.181 45.9702 250.088 45.7305 249.9 45.6032C249.713 45.4759 249.38 45.4085 248.901 45.4085H247.766V47.3033H248.878C249.384 47.3033 249.724 47.2246 249.908 47.0674Z" fill="#D0B894"/>
<path d="M258.325 49.1608C257.79 49.6851 257.127 49.9435 256.341 49.9435C255.554 49.9435 254.892 49.6813 254.356 49.1608C253.821 48.6366 253.555 47.9887 253.555 47.2061C253.555 46.4235 253.824 45.7756 254.356 45.2514C254.892 44.7271 255.554 44.4688 256.341 44.4688C257.127 44.4688 257.79 44.7309 258.325 45.2514C258.861 45.7756 259.127 46.4235 259.127 47.2061C259.127 47.9887 258.861 48.6366 258.325 49.1608ZM257.67 45.8468C257.311 45.4723 256.865 45.2851 256.341 45.2851C255.816 45.2851 255.371 45.4723 255.011 45.8468C254.648 46.2213 254.468 46.6744 254.468 47.2061C254.468 47.7379 254.648 48.191 255.011 48.5654C255.371 48.9399 255.816 49.1271 256.341 49.1271C256.865 49.1271 257.311 48.9399 257.67 48.5654C258.03 48.191 258.213 47.7379 258.213 47.2061C258.213 46.6744 258.033 46.2213 257.67 45.8468Z" fill="#D0B894"/>
<path d="M262.961 48.6813C263.205 48.9659 263.531 49.1045 263.946 49.1045C264.362 49.1045 264.688 48.9622 264.931 48.6813C265.174 48.4005 265.294 48.0148 265.294 47.5317V44.5996H266.189V47.5691C266.189 48.3331 265.98 48.9172 265.56 49.3291C265.141 49.7411 264.605 49.947 263.946 49.947C263.287 49.947 262.752 49.7411 262.332 49.3291C261.913 48.9172 261.703 48.3293 261.703 47.5691V44.5996H262.598V47.5317C262.598 48.0148 262.718 48.4005 262.961 48.6813Z" fill="#D0B894"/>
<path d="M272.678 45.06C273.045 45.3671 273.232 45.8427 273.232 46.483C273.232 47.1234 273.045 47.5952 272.667 47.891C272.292 48.1906 271.712 48.3366 270.936 48.3366H269.997V49.8907H269.102V44.5957H270.918C271.719 44.5957 272.307 44.7492 272.674 45.0563L272.678 45.06ZM272.045 47.2432C272.225 47.0522 272.315 46.7751 272.315 46.4119C272.315 46.0486 272.202 45.7865 271.974 45.6367C271.745 45.4869 271.39 45.4083 270.907 45.4083H269.997V47.5278H271.034C271.528 47.5278 271.865 47.4342 272.045 47.2432Z" fill="#D0B894"/>
</svg>
